:version 1.10
:name ASF
:units
  mass 1
  length 1
  angle deg
:documentation
  ASF file generated by Kaydara
:root
  axis xyz
  order  tx ty tz rx ry rz
  position 0 0 0
  orientation 0 0 0
:bonedata
  begin
    id 1
    name RightUpLegDummy
    direction -0.718183 -0.695806 0.00816078
    length 4.904
    axis 0 0 0 xyz
  end
  begin
    id 2
    name RightUpLeg
    direction -0.00334265 -0.999142 0.0412837
    length 17.4976
    axis -0.59612 0.00940841 -0.192072 xyz
    dof rx ry rz
  end
  begin
    id 3
    name RightLeg
    direction 0.000365068 -0.988824 -0.149089
    length 16.5821
    axis 6.58657 0.0604092 -0.318554 xyz
    dof rx ry rz
  end
  begin
    id 4
    name RightFoot
    direction 0.00079069 -0.460991 0.887405
    length 3.77069
    axis 0.000105557 -0.120464 -0.188919 xyz
    dof rx ry rz
  end
  begin
    id 5
    name RightToes
    direction 0.00124768 -0.014065 0.9999
    length 3.85082
    axis 0.00053932 0.542178 -0.142707 xyz
    dof rx ry rz
  end
  begin
    id 6
    name SpineDummy
    direction 8.3039e-015 1 4.58682e-016
    length 4.6813
    axis 0 0 0 xyz
  end
  begin
    id 7
    name Spine
    direction 4.12799e-006 0.999988 0.00494944
    length 10.1015
    axis -0.00149944 0.000129667 -0.000235877 xyz
    dof rx ry rz
  end
  begin
    id 8
    name Spine1
    direction 0 0 0
    length 0
    axis -0.00160567 0.000129431 -0.000308381 xyz
    dof rx ry rz
  end
  begin
    id 9
    name HEadDummy
    direction 5.38513e-006 0.999999 0.00127044
    length 3.43865
    axis -0.00160567 0.000129431 -0.000308381 xyz
  end
  begin
    id 10
    name HEad
    direction -0.0226495 0.980942 0.192974
    length 5.12695
    axis -0.00160642 -0.114462 -0.000307946 xyz
    dof rx ry rz
  end
  begin
    id 11
    name LeftShoulder1Dummy
    direction 0.99889 -0.0402564 -0.0244456
    length 3.5433
    axis -0.00160567 0.000129431 -0.000308381 xyz
  end
  begin
    id 12
    name LeftShoulder1
    direction 0.999464 -0.00142945 0.0326977
    length 4.05031
    axis 0.393425 -0.0796525 -0.0507861 xyz
    dof rx ry rz
  end
  begin
    id 13
    name LeftArm
    direction 0.998564 -0.000899612 -0.053557
    length 10.3537
    axis -22.9476 0.126974 0.960871 xyz
    dof rx ry rz
  end
  begin
    id 14
    name LeftForeArm
    direction 0.998903 0.00865904 0.0460121
    length 8.70632
    axis -9.91856 -0.0656997 -0.178106 xyz
    dof rx ry rz
  end
  begin
    id 15
    name LeftHand
    direction 0.992938 -0.0411687 0.11126
    length 5.32135
    axis -0.00981066 -0.00340928 0.18486 xyz
    dof rx ry rz
  end
  begin
    id 16
    name RightShoulderDummy
    direction -0.998891 -0.0402456 -0.0244411
    length 3.5433
    axis -0.00160567 0.000129431 -0.000308381 xyz
  end
  begin
    id 17
    name RightShoulder
    direction -0.999353 -0.00388479 0.0357579
    length 4.05031
    axis 1.48787 0.256014 0.157284 xyz
    dof rx ry rz
  end
  begin
    id 18
    name RightArm
    direction -0.998583 -0.000660455 -0.0532032
    length 10.3947
    axis -22.4211 -0.109147 -0.943573 xyz
    dof rx ry rz
  end
  begin
    id 19
    name RightForeArm
    direction -0.998898 0.00868588 0.0461311
    length 8.68355
    axis -9.92343 0.0658342 0.178556 xyz
    dof rx ry rz
  end
  begin
    id 20
    name RightHand
    direction -0.992843 -0.0414545 0.112004
    length 5.28593
    axis -0.00982288 0.00332907 -0.185539 xyz
    dof rx ry rz
  end
  begin
    id 21
    name LeftUpLegDummy
    direction 0.718183 -0.695806 0.00816078
    length 4.904
    axis 0 0 0 xyz
  end
  begin
    id 22
    name LeftUpLeg
    direction 0.00445374 -0.999139 0.0412407
    length 17.4976
    axis -0.593655 -0.0138231 0.255969 xyz
    dof rx ry rz
  end
  begin
    id 23
    name LeftLeg
    direction -0.00154847 -0.988829 -0.149046
    length 16.5821
    axis 6.5841 -0.0555156 0.250722 xyz
    dof rx ry rz
  end
  begin
    id 24
    name LeftFoot
    direction -0.00417678 -0.460985 0.887398
    length 3.77069
    axis 5.53694e-005 4.88088e-005 -0.000136194 xyz
    dof rx ry rz
  end
  begin
    id 25
    name LeftToes
    direction 0.00818061 -0.00485256 0.999955
    length 3.85048
    axis 6.41179e-005 4.88477e-005 -0.000136145 xyz
    dof rx ry rz
  end
:hierarchy
  begin
    root RightUpLegDummy SpineDummy LeftUpLegDummy
    RightUpLegDummy RightUpLeg
    RightUpLeg RightLeg
    RightLeg RightFoot
    RightFoot RightToes
    SpineDummy Spine
    Spine Spine1
    Spine1 HEadDummy LeftShoulder1Dummy RightShoulderDummy
    HEadDummy HEad
    LeftShoulder1Dummy LeftShoulder1
    LeftShoulder1 LeftArm
    LeftArm LeftForeArm
    LeftForeArm LeftHand
    RightShoulderDummy RightShoulder
    RightShoulder RightArm
    RightArm RightForeArm
    RightForeArm RightHand
    LeftUpLegDummy LeftUpLeg
    LeftUpLeg LeftLeg
    LeftLeg LeftFoot
    LeftFoot LeftToes
  end

:SAMPLES-PER-SECOND 30
:FULLY-SPECIFIED
:DEGREES
46
root  0.176943 40.2885 0.17156 -171.361 -86.0035 171.475
RightUpLeg  4.33254 -6.32015 -9.53945
RightLeg  -5.10899 -10.1459 0.343447
RightFoot  -0.809741 -0.770267 8.28314
RightToes  6.35927e-011 1.30204e-014 -6.03759e-014
Spine  -1.23422 -0.0828044 -0.917894
Spine1  0.0610072 -0.109917 0.232559
HEad  0.488806 4.00278 -0.253743
LeftShoulder1  0.0208533 3.10297 0.896633
LeftArm  -21.4829 -4.073 1.49766
LeftForeArm  20.0326 5.97984 -5.89663
LeftHand  -0.0209334 3.0022 -0.12789
RightShoulder  -0.0150929 -3.71739 -1.61445
RightArm  -26.0067 20.6609 1.63269
RightForeArm  20.2065 -7.3529 8.88962
RightHand  -0.0399392 -2.83228 -1.34008
LeftUpLeg  6.67311 11.1571 13.9979
LeftLeg  -3.21933 22.1549 -2.10538
LeftFoot  -1.29215 0.731541 -8.22591
LeftToes  1.82556e-010 9.56953e-011 7.56925e-011
47
root  0.198037 40.2889 0.170985 -171.866 -86.0151 171.899
RightUpLeg  4.38209 -6.30304 -9.50828
RightLeg  -5.09219 -10.1738 0.350369
RightFoot  -0.81453 -0.769568 8.26649
RightToes  6.35927e-011 1.30204e-014 -6.03759e-014
Spine  -1.21912 -0.0949484 -0.79015
Spine1  0.162751 -0.098025 0.0761839
HEad  0.251143 4.02774 -0.222849
LeftShoulder1  0.022698 3.11996 1.04334
LeftArm  -21.1715 -3.96298 1.46539
LeftForeArm  19.5754 5.70382 -6.08214
LeftHand  -0.0249698 3.39644 -0.258607
RightShoulder  -0.0137725 -3.67638 -1.52384
RightArm  -26.0964 20.7403 1.66009
RightForeArm  20.2718 -7.34931 8.86936
RightHand  -0.0401671 -2.80371 -1.15923
LeftUpLeg  6.68464 11.1719 14.0328
LeftLeg  -3.14481 22.1518 -2.05595
LeftFoot  -1.28332 0.728572 -8.15056
LeftToes  1.82556e-010 9.56953e-011 7.56925e-011
48
root  0.219514 40.2891 0.170997 -172.381 -85.9759 172.372
RightUpLeg  4.31435 -6.27982 -9.45784
RightLeg  -4.96151 -10.1326 0.307451
RightFoot  -0.813506 -0.753321 8.10284
RightToes  6.35927e-011 1.30204e-014 -6.03759e-014
Spine  -1.09935 -0.0647132 -0.757548
Spine1  0.0770135 -0.0917771 0.205797
HEad  -0.0610723 4.01356 -0.431258
LeftShoulder1  0.0248269 3.10473 0.831056
LeftArm  -20.8351 -3.89178 1.66039
LeftForeArm  19.0706 5.45461 -6.28091
LeftHand  -0.0255823 3.49108 0.0617802
RightShoulder  -0.0117985 -3.66784 -1.72553
RightArm  -26.0154 20.7259 1.81701
RightForeArm  20.1745 -7.35328 8.89097
RightHand  -0.0400418 -2.82828 -1.2274
LeftUpLeg  6.72201 11.2058 14.0706
LeftLeg  -3.16984 22.1644 -2.083
LeftFoot  -1.27425 0.717233 -7.95455
LeftToes  1.82556e-010 9.56953e-011 7.56925e-011
49
root  0.238571 40.2891 0.17146 -172.171 -85.896 172.194
RightUpLeg  4.25701 -6.24428 -9.45573
RightLeg  -5.02095 -10.0872 0.275355
RightFoot  -0.754828 -0.761847 8.15354
RightToes  6.35927e-011 1.30204e-014 -6.03759e-014
Spine  -1.07375 -0.0643149 -0.66675
Spine1  -0.0872743 -0.0576138 -0.000824524
HEad  -0.215432 4.0109 -0.499241
LeftShoulder1  0.0269504 3.14885 1.00635
LeftArm  -21.0781 -3.94361 1.58303
LeftForeArm  19.5474 5.64187 -6.12447
LeftHand  -0.0215578 3.07538 0.126866
RightShoulder  -0.00959629 -3.56687 -1.39702
RightArm  -26.0799 20.8697 1.5614
RightForeArm  20.2209 -7.35679 8.91417
RightHand  -0.0405433 -2.77095 -1.17833
LeftUpLeg  6.65148 11.1916 14.0301
LeftLeg  -3.11425 22.2802 -2.06638
LeftFoot  -1.28076 0.727837 -8.11032
LeftToes  1.82556e-010 9.56953e-011 7.56925e-011
50
root  0.258017 40.2891 0.172466 -172.863 -85.835 172.863
RightUpLeg  4.1988 -6.21811 -9.4102
RightLeg  -4.94906 -10.0718 0.264848
RightFoot  -0.720445 -0.773934 8.25947
RightToes  6.35927e-011 1.30204e-014 -6.03759e-014
Spine  -1.08058 -0.0369217 -0.506449
Spine1  -0.0481463 -0.0099097 -0.134958
HEad  -0.402274 4.26869 -0.592735
LeftShoulder1  0.0287793 3.1372 1.04585
LeftArm  -21.3637 -4.00624 1.59587
LeftForeArm  19.8699 5.75029 -5.96964
LeftHand  -0.0211004 2.95737 -0.183302
RightShoulder  -0.00752878 -3.59067 -1.26994
RightArm  -26.2506 20.9904 1.49262
RightForeArm  20.337 -7.34691 8.85658
RightHand  -0.04199 -2.72099 -1.21185
LeftUpLeg  6.64497 11.2297 14.1042
LeftLeg  -3.04137 22.2118 -2.05551
LeftFoot  -1.30192 0.73104 -8.15615
LeftToes  1.82556e-010 9.56953e-011 7.56925e-011
51
root  0.271806 40.2895 0.175485 -172.432 -85.8513 172.334
RightUpLeg  4.34191 -6.32153 -9.48454
RightLeg  -5.06193 -9.92633 0.332546
RightFoot  -0.805015 -0.72096 7.74657
RightToes  6.35927e-011 1.30204e-014 -6.03759e-014
Spine  -0.994135 -0.060267 -0.559312
Spine1  -0.0777551 -0.0385395 -0.109243
HEad  -0.483659 4.40752 -0.711147
LeftShoulder1  0.0300239 3.16839 1.09797
LeftArm  -21.4845 -4.0291 1.53161
LeftForeArm  19.9177 5.78943 -5.90634
LeftHand  -0.0219888 3.02838 -0.326181
RightShoulder  -0.00596777 -3.58997 -1.21873
RightArm  -26.1845 21.1513 1.3961
RightForeArm  20.429 -7.36026 8.94244
RightHand  -0.0495149 -2.6575 -1.52347
LeftUpLeg  6.71951 11.2211 14.066
LeftLeg  -3.05223 22.2204 -2.05511
LeftFoot  -1.27724 0.725024 -8.06231
LeftToes  1.82556e-010 9.56953e-011 7.56925e-011
52
root  0.2867 40.2904 0.180239 -172.725 -85.8047 172.55
RightUpLeg  4.3792 -6.28766 -9.48328
RightLeg  -5.04018 -9.86937 0.287727
RightFoot  -0.751081 -0.741518 7.93208
RightToes  6.35927e-011 1.30204e-014 -6.03759e-014
Spine  -0.971405 -0.0378292 -0.403251
Spine1  -0.0288342 0.00646735 -0.258891
HEad  -0.413251 4.45478 -0.563733
LeftShoulder1  0.0303949 3.11462 1.05687
LeftArm  -21.5575 -4.08709 1.60287
LeftForeArm  19.8943 5.87664 -5.87166
LeftHand  -0.0211566 2.92665 -0.262785
RightShoulder  -0.00481936 -3.59094 -1.23792
RightArm  -26.0912 21.1428 1.36788
RightForeArm  20.2847 -7.36777 8.9844
RightHand  -0.0507521 -2.60976 -1.56435
LeftUpLeg  6.76797 11.2289 14.0751
LeftLeg  -3.0009 22.2583 -2.03064
LeftFoot  -1.31301 0.722254 -8.02319
LeftToes  1.82556e-010 9.56953e-011 7.56925e-011
53
root  0.305602 40.2948 0.185195 -172.74 -85.7661 172.556
RightUpLeg  4.27947 -6.26527 -9.47153
RightLeg  -4.90832 -9.9079 0.24115
RightFoot  -0.699913 -0.758264 8.07635
RightToes  6.35927e-011 1.30204e-014 -6.03759e-014
Spine  -0.909998 -0.0262666 -0.313849
Spine1  -0.141266 0.0384181 -0.367556
HEad  -0.535345 4.39723 -0.826584
LeftShoulder1  0.0280521 3.11773 1.26024
LeftArm  -21.5047 -4.10931 1.46187
LeftForeArm  19.896 5.94712 -5.89031
LeftHand  -0.0200095 2.78666 -0.19246
RightShoulder  -0.00331749 -3.64615 -1.16402
RightArm  -26.258 21.2844 1.28299
RightForeArm  20.4531 -7.36045 8.9444
RightHand  -0.0446394 -2.78367 -1.34495
LeftUpLeg  6.77069 11.2199 14.0719
LeftLeg  -3.02276 22.289 -2.04325
LeftFoot  -1.27982 0.730581 -8.16083
LeftToes  1.82556e-010 9.56953e-011 7.56925e-011
54
root  0.326808 40.2939 0.191695 -172.468 -85.7722 172.212
RightUpLeg  4.35698 -6.28268 -9.50778
RightLeg  -4.98757 -9.86406 0.233843
RightFoot  -0.677554 -0.760766 8.08392
RightToes  6.35927e-011 1.30204e-014 -6.03759e-014
Spine  -0.627928 0.0101946 -0.343499
Spine1  -0.392379 0.0531719 -0.265952
HEad  -0.361521 4.26951 -0.706075
LeftShoulder1  0.0308163 3.1103 1.26303
LeftArm  -21.5238 -4.1666 1.32491
LeftForeArm  19.9297 5.97966 -5.88897
LeftHand  -0.0204745 2.8527 -0.0299806
RightShoulder  -0.00180254 -3.734 -1.37141
RightArm  -26.1744 21.2584 1.30413
RightForeArm  20.385 -7.36528 8.9722
RightHand  -0.0401615 -2.80474 -1.13972
LeftUpLeg  6.77919 11.2012 14.046
LeftLeg  -2.95394 22.2536 -2.00048
LeftFoot  -1.27542 0.732499 -8.19926
LeftToes  1.82556e-010 9.56953e-011 7.56925e-011
55
root  0.343377 40.2944 0.198287 -172.308 -85.7428 172.005
RightUpLeg  4.33715 -6.27148 -9.51695
RightLeg  -4.91278 -9.88318 0.185768
RightFoot  -0.640732 -0.764101 8.10626
RightToes  6.35927e-011 1.30204e-014 -6.03759e-014
Spine  -0.498492 0.0320601 -0.332201
Spine1  -0.514865 0.07096 -0.248109
HEad  -0.314567 4.14415 -0.750542
LeftShoulder1  0.0377384 3.04089 1.11859
LeftArm  -21.4477 -4.17067 1.47201
LeftForeArm  19.7698 5.93624 -5.93941
LeftHand  -0.0210138 2.90656 -0.0337363
RightShoulder  -0.000712498 -3.73189 -1.42981
RightArm  -26.2202 21.1535 1.28378
RightForeArm  20.5495 -7.35522 8.9151
RightHand  -0.0378578 -2.69035 -1.18101
LeftUpLeg  6.81785 11.1693 13.994
LeftLeg  -2.99245 22.3534 -2.00166
LeftFoot  -1.24378 0.7275 -8.1293
LeftToes  1.82556e-010 9.56953e-011 7.56925e-011
56
root  0.358577 40.2968 0.200376 -172.559 -85.6942 172.177
RightUpLeg  4.38867 -6.27093 -9.50865
RightLeg  -4.92346 -9.82667 0.173194
RightFoot  -0.629988 -0.762656 8.05856
RightToes  6.35927e-011 1.30204e-014 -6.03759e-014
Spine  -0.305242 0.0461099 -0.30853
Spine1  -0.708993 0.0861898 -0.268069
HEad  -0.0428567 4.03832 -0.800034
LeftShoulder1  0.0431782 2.92645 1.2259
LeftArm  -21.4328 -4.00163 1.42697
LeftForeArm  19.8458 5.91971 -5.91296
LeftHand  -0.0196326 2.73742 -0.0266684
RightShoulder  -0.000486823 -3.71136 -1.46183
RightArm  -26.1963 21.1888 1.26275
RightForeArm  20.5247 -7.36021 8.94528
RightHand  -0.0401364 -2.79413 -1.18527
LeftUpLeg  6.89831 11.1931 14.0317
LeftLeg  -2.98395 22.3287 -2.01563
LeftFoot  -1.24651 0.725663 -8.10791
LeftToes  1.82556e-010 9.56953e-011 7.56925e-011
57
root  0.370677 40.2972 0.207724 -172.094 -85.6814 171.663
RightUpLeg  4.34986 -6.32967 -9.58115
RightLeg  -4.78543 -9.71678 0.158314
RightFoot  -0.667082 -0.760372 8.00335
RightToes  6.35927e-011 1.30204e-014 -6.03759e-014
Spine  -0.372926 0.0477994 -0.353865
Spine1  -0.47774 0.0749327 -0.178413
HEad  0.268324 3.95972 -0.749978
LeftShoulder1  0.0417604 2.94331 1.13206
LeftArm  -21.561 -4.01478 1.42685
LeftForeArm  19.6824 5.89852 -5.86258
LeftHand  -0.0200217 2.82124 0.162219
RightShoulder  -0.0015416 -3.70852 -1.69964
RightArm  -26.2646 21.0622 1.4048
RightForeArm  20.62 -7.34593 8.85975
RightHand  -0.0456586 -2.61959 -1.34196
LeftUpLeg  6.9494 11.1426 13.9588
LeftLeg  -3.04164 22.4411 -2.02224
LeftFoot  -1.20219 0.726933 -8.13306
LeftToes  1.82556e-010 9.56953e-011 7.56925e-011
58
root  0.38834 40.2968 0.205221 -171.979 -85.6546 171.582
RightUpLeg  4.31763 -6.28313 -9.56259
RightLeg  -4.86631 -9.75318 0.147315
RightFoot  -0.650024 -0.763593 8.04059
RightToes  6.35927e-011 1.30204e-014 -6.03759e-014
Spine  -0.96033 0.0188909 -0.539583
Spine1  0.574847 0.0185629 -0.0127181
HEad  -0.243048 3.8452 -0.874967
LeftShoulder1  0.0352742 3.02653 1.21811
LeftArm  -21.6915 -3.89304 1.3167
LeftForeArm  19.6255 5.84784 -5.78233
LeftHand  -0.0189152 2.7411 0.366483
RightShoulder  -0.00432617 -3.6014 -1.70654
RightArm  -26.4829 21.0123 1.30183
RightForeArm  20.3956 -7.32894 8.74703
RightHand  -0.0508623 -2.63647 -1.5805
LeftUpLeg  6.84228 11.1412 13.9366
LeftLeg  -2.93899 22.4617 -1.98115
LeftFoot  -1.22036 0.725706 -8.11557
LeftToes  1.82556e-010 9.56953e-011 7.56925e-011
